<svg width="115" height="26" viewBox="0 0 115 26" fill="none" xmlns="http://www.w3.org/2000/svg">
<path d="M0.121488 0.299805C1.95203 0.299805 3.78257 0.299805 5.70946 0.299805C6.41599 3.02956 7.13322 5.77002 7.83974 8.51048C7.90397 8.51048 7.9575 8.52119 8.02173 8.52119C8.80319 5.80214 9.41337 3.04027 10.1841 0.299805C12.0468 0.299805 13.888 0.299805 15.7721 0.299805C15.7721 4.95645 15.7721 9.55957 15.7721 14.2804C14.6481 14.334 13.5348 14.3126 12.3358 14.2804C12.3358 10.8549 12.3358 7.50423 12.3358 4.15358C12.2716 4.14288 12.2074 4.13217 12.1431 4.12146C11.276 7.48281 10.4089 10.8335 9.52042 14.2804C8.46063 14.3233 7.42225 14.3019 6.34105 14.2911C5.46325 10.8656 4.59615 7.49352 3.72905 4.12146C3.42931 4.76376 3.54707 5.41676 3.52566 6.04835C3.50425 6.74417 3.52566 7.43999 3.52566 8.12511C3.52566 8.78881 3.52566 9.46323 3.52566 10.1269C3.52566 10.8228 3.52566 11.5186 3.52566 12.2037C3.52566 12.8674 3.52566 13.5204 3.52566 14.2376C2.3267 14.2376 1.2348 14.2376 0.153602 14.2376C-0.0283821 13.6703 -0.0604956 1.09197 0.121488 0.299805Z" fill="white"/>
<path d="M79.7018 0.256763C80.965 0.256763 82.1639 0.26747 83.3629 0.24606C83.684 0.24606 83.8125 0.438748 83.9517 0.652847C84.412 1.33796 84.8723 2.01237 85.3326 2.68678C86.3603 4.19618 87.3772 5.70557 88.4049 7.21497C88.5441 7.41836 88.6939 7.61105 88.9294 7.91079C89.0793 6.97946 88.9937 6.16589 89.0151 5.36302C89.0258 4.51733 89.0151 3.67164 89.0151 2.81524C89.0151 2.00167 89.0151 1.17739 89.0151 0.24606C89.7323 0.24606 90.396 0.246056 91.049 0.235352C91.6913 0.235352 92.3229 0.235352 92.9438 0.235352C93.1044 0.856238 93.1686 12.6531 93.0187 14.2053C92.826 14.2267 92.6012 14.2802 92.3871 14.2802C91.4665 14.2909 90.5352 14.2588 89.6146 14.2909C89.1435 14.3016 88.8759 14.1197 88.619 13.745C87.2059 11.6361 85.7608 9.53794 84.3263 7.43977C84.1765 7.21497 84.0159 7.00087 83.759 6.79747C83.6626 9.27031 83.6733 11.711 83.6626 14.2267C82.3031 14.3445 81.0078 14.2695 79.6697 14.2802C79.7018 9.59146 79.7018 4.95623 79.7018 0.256763Z" fill="white"/>
<path d="M69.875 0C70.635 0.0963444 71.4165 0.128462 72.1551 0.310446C74.7885 0.942037 76.3621 2.64412 76.9081 5.28824C77.1864 6.65847 77.165 8.05011 76.8867 9.42034C76.2979 12.3321 74.2212 14.2054 71.2024 14.5266C70.0034 14.6551 68.7938 14.6336 67.6055 14.3767C65.1434 13.8415 63.5805 12.3214 62.8739 9.93418C62.4136 8.38197 62.4029 6.78693 62.7562 5.2133C63.4199 2.24804 65.6037 0.363969 68.6439 0.128461C69.0507 0.0963457 69.4682 0.128461 69.875 0.128461C69.8643 0.0749358 69.875 0.0428197 69.875 0ZM72.8616 7.23654C72.7439 6.57283 72.6904 5.8556 72.487 5.17049C72.123 3.96083 71.106 3.29712 69.7893 3.28642C68.494 3.28642 67.4663 3.96083 67.1238 5.19189C66.9204 5.91983 66.8241 6.71199 66.8348 7.46134C66.8455 8.18928 66.9632 8.94933 67.1987 9.64515C67.6055 10.8655 68.6546 11.4329 70.0569 11.3686C71.2987 11.3044 72.1872 10.6407 72.5084 9.42034C72.6904 8.73523 72.7439 8.00729 72.8616 7.23654Z" fill="white"/>
<path d="M37.9954 4.19637C36.6359 4.2713 35.362 4.34624 34.0881 4.42118C34.0239 4.2606 33.9704 4.17496 33.9489 4.07862C33.4993 2.57993 32.2469 2.5264 31.2513 2.69768C31.0372 2.72979 30.8124 2.86896 30.6518 3.01883C30.1273 3.48984 30.1915 4.15355 30.8017 4.4854C31.155 4.67809 31.5617 4.77444 31.9578 4.88149C32.9427 5.14911 33.9489 5.37391 34.9231 5.66295C35.4155 5.80211 35.8865 6.01621 36.3361 6.25172C38.3166 7.31151 39.0552 9.43108 38.1881 11.5078C37.6207 12.8781 36.5931 13.7773 35.1907 14.1841C33.0711 14.7943 30.9302 14.7836 28.832 14.0877C27.0871 13.5097 25.8346 11.6256 25.8881 9.74152C27.1941 9.65588 28.5108 9.58095 29.8275 9.49531C29.9346 9.82717 29.9988 10.1055 30.0952 10.3624C30.609 11.7434 32.3646 12.3535 33.6171 11.5935C34.5591 11.0154 34.6019 9.82717 33.6492 9.27051C33.1889 9.00289 32.6536 8.86373 32.1505 8.70315C31.2727 8.43553 30.3628 8.23213 29.4957 7.93239C28.9711 7.75041 28.4466 7.49349 27.9863 7.18305C25.8132 5.73788 25.7276 2.71909 27.8471 1.19899C28.4145 0.792201 29.1103 0.481757 29.7847 0.321183C31.369 -0.05349 32.9962 -0.0427799 34.5912 0.299778C36.2505 0.653041 37.4173 1.59507 37.8669 3.28645C37.9098 3.45773 37.9419 3.63972 37.974 3.81099C38.0061 3.90734 37.9954 4.00368 37.9954 4.19637Z" fill="white"/>
<path d="M40.2007 9.7417C41.5388 9.65606 42.8341 9.58112 44.1508 9.49549C44.2686 9.85945 44.3435 10.1806 44.472 10.4803C45.0072 11.7756 46.8163 12.3323 47.9939 11.5615C48.8931 10.9728 48.9252 9.83804 48.0046 9.28139C47.555 9.01376 47.0197 8.8639 46.5059 8.70332C45.6281 8.4357 44.7182 8.23231 43.8511 7.93257C43.3051 7.73988 42.7592 7.47226 42.2774 7.15111C40.1793 5.72735 40.0936 2.81561 42.0848 1.24198C42.7056 0.760261 43.4015 0.43911 44.1615 0.289241C45.7137 -0.0104971 47.2766 -0.0426093 48.8289 0.278539C50.5202 0.621097 51.7299 1.53101 52.2009 3.26521C52.2759 3.53284 52.2973 3.81116 52.3722 4.19654C51.0127 4.28218 49.7281 4.35711 48.4221 4.44275C48.3578 4.30359 48.3043 4.21795 48.2829 4.12161C47.8547 2.68715 46.72 2.52658 45.6067 2.70856C45.414 2.74067 45.2106 2.83702 45.0607 2.96547C44.4505 3.43649 44.4934 4.17514 45.1785 4.5284C45.5103 4.69968 45.8957 4.79602 46.2704 4.89236C47.2552 5.15999 48.2615 5.38479 49.2464 5.67382C49.7388 5.81299 50.2098 6.01638 50.6701 6.25189C52.7041 7.33309 53.4427 9.5169 52.49 11.6365C51.8905 12.9639 50.8628 13.831 49.5033 14.2164C47.4051 14.8051 45.2855 14.7944 43.2088 14.1093C41.4425 13.5312 40.2221 11.7328 40.2007 9.7417Z" fill="white"/>
<path d="M101.851 0.27832C106.25 0.27832 110.564 0.27832 114.857 0.27832C115.028 0.845682 115.05 2.68693 114.9 3.66108C113.498 3.66108 112.085 3.66108 110.554 3.66108C110.554 7.24723 110.554 10.7263 110.554 14.2483C109.087 14.2483 107.717 14.2483 106.272 14.2483C106.272 10.737 106.272 7.27934 106.272 3.74672C104.773 3.55403 103.317 3.76813 101.851 3.61826C101.851 2.48354 101.851 1.42375 101.851 0.27832Z" fill="white"/>
<path d="M19.0478 0.299805C20.4073 0.299805 21.7882 0.299805 23.1585 0.299805C23.319 0.909986 23.3297 13.4776 23.1692 14.259C21.8096 14.259 20.4394 14.259 19.0692 14.259C18.9086 13.6596 18.8872 1.10267 19.0478 0.299805Z" fill="white"/>
<path d="M55.5517 0.299805C56.9112 0.299805 58.2921 0.299805 59.6624 0.299805C59.8229 0.899281 59.8443 13.4669 59.6731 14.259C58.3135 14.259 56.9433 14.259 55.5731 14.259C55.4125 13.6596 55.3911 1.11338 55.5517 0.299805Z" fill="white"/>
<path d="M95.2026 10.598C95.2026 9.68813 95.2026 8.83174 95.2026 7.97534C95.7379 7.79336 99.5167 7.73984 100.598 7.91111C100.598 8.77821 100.598 9.65602 100.598 10.5445C100.084 10.7158 96.4016 10.7586 95.2026 10.598Z" fill="white"/>
<path d="M0.636281 22.7188V16.8454H2.78169C3.16237 16.8454 3.47507 16.8889 3.7198 16.9759C3.96996 17.0629 4.16574 17.1826 4.30713 17.3348C4.45397 17.4871 4.55458 17.6639 4.60896 17.8651C4.66878 18.0608 4.69869 18.2675 4.69869 18.485C4.69869 18.8113 4.63071 19.0805 4.49475 19.2926C4.36424 19.5047 4.19293 19.6733 3.98084 19.7984C3.76874 19.918 3.52674 20.0023 3.25482 20.0513C2.98835 20.1002 2.71915 20.1247 2.44723 20.1247H1.19099V22.7188H0.636281ZM2.46355 19.6515C2.72459 19.6515 2.95843 19.6352 3.16509 19.6026C3.37175 19.57 3.54577 19.5102 3.68717 19.4231C3.834 19.3307 3.94549 19.2083 4.02162 19.0561C4.1032 18.8983 4.14398 18.6944 4.14398 18.4442C4.14398 18.0744 4.02162 17.7944 3.7769 17.604C3.53761 17.4137 3.15421 17.3185 2.6267 17.3185H1.19099V19.6515H2.46355ZM8.6822 22.833C8.41029 22.8275 8.15469 22.7786 7.9154 22.6861C7.68156 22.5937 7.4749 22.455 7.29544 22.2701C7.12141 22.0852 6.98273 21.8541 6.87941 21.5767C6.77608 21.2994 6.72441 20.9758 6.72441 20.606C6.72441 20.296 6.7652 20.0078 6.84678 19.7413C6.92835 19.4694 7.05071 19.2328 7.21386 19.0316C7.37701 18.8304 7.58095 18.6727 7.82567 18.5585C8.07039 18.4388 8.3559 18.379 8.6822 18.379C9.01394 18.379 9.30217 18.4388 9.54689 18.5585C9.79162 18.6727 9.99555 18.8304 10.1587 19.0316C10.3218 19.2274 10.4415 19.4612 10.5176 19.7331C10.5992 20.005 10.64 20.296 10.64 20.606C10.64 20.9431 10.5938 21.2477 10.5013 21.5196C10.4089 21.7915 10.2756 22.0254 10.1016 22.2211C9.93301 22.4169 9.72636 22.5692 9.48163 22.678C9.24235 22.7813 8.97587 22.833 8.6822 22.833ZM10.1179 20.606C10.1179 20.3558 10.0907 20.122 10.0363 19.9044C9.98196 19.6869 9.89766 19.4993 9.78346 19.3416C9.66925 19.1784 9.52242 19.0506 9.34296 18.9582C9.16349 18.8657 8.94324 18.8195 8.6822 18.8195C8.4266 18.8195 8.20635 18.8712 8.02145 18.9745C7.84199 19.0724 7.69515 19.2056 7.58095 19.3742C7.46674 19.5373 7.38245 19.7277 7.32807 19.9452C7.27368 20.1573 7.24649 20.3776 7.24649 20.606C7.24649 20.867 7.2764 21.109 7.33622 21.332C7.40148 21.5495 7.49393 21.7371 7.61358 21.8948C7.73322 22.0526 7.88277 22.1749 8.06224 22.2619C8.2417 22.3489 8.44836 22.3925 8.6822 22.3925C8.9378 22.3925 9.15533 22.3435 9.3348 22.2456C9.5197 22.1423 9.66925 22.0063 9.78346 21.8377C9.89766 21.6692 9.98196 21.4788 10.0363 21.2667C10.0907 21.0546 10.1179 20.8344 10.1179 20.606ZM16.5351 22.0662L17.6445 18.4932H18.1421L16.7717 22.7188H16.2496L15.3278 19.1703H15.3115L14.3734 22.7188H13.786L12.4971 18.4932H12.9866L14.0797 22.0988L15.0586 18.4932H15.6051L16.5351 22.0662ZM23.3358 20.3123C23.3358 20.1056 23.3059 19.9126 23.2461 19.7331C23.1917 19.5482 23.1074 19.3905 22.9932 19.26C22.8844 19.124 22.7457 19.018 22.5771 18.9419C22.4086 18.8603 22.2155 18.8195 21.998 18.8195C21.7804 18.8195 21.5874 18.8603 21.4188 18.9419C21.2556 19.0234 21.1142 19.1322 20.9946 19.2681C20.8804 19.4041 20.7879 19.5618 20.7172 19.7413C20.6465 19.9207 20.6003 20.1111 20.5786 20.3123H23.3358ZM20.5786 20.7202C20.5786 20.9486 20.6085 21.1661 20.6683 21.3728C20.7281 21.574 20.8151 21.7507 20.9293 21.903C21.049 22.0498 21.1985 22.1695 21.378 22.2619C21.5575 22.3489 21.7641 22.3925 21.998 22.3925C22.3188 22.3925 22.5935 22.3082 22.8219 22.1396C23.0503 21.971 23.2025 21.7317 23.2787 21.4217H23.8252C23.7654 21.6229 23.6866 21.8106 23.5887 21.9846C23.4908 22.1532 23.3684 22.3027 23.2216 22.4332C23.0747 22.5583 22.9007 22.6562 22.6995 22.7269C22.4983 22.7976 22.2644 22.833 21.998 22.833C21.6608 22.833 21.3698 22.7759 21.1251 22.6616C20.8804 22.5474 20.6792 22.3925 20.5215 22.1967C20.3638 21.9955 20.2468 21.7616 20.1707 21.4951C20.0946 21.2232 20.0565 20.9323 20.0565 20.6223C20.0565 20.3123 20.1 20.0214 20.187 19.7494C20.2795 19.4775 20.4073 19.241 20.5704 19.0397C20.739 18.8331 20.9429 18.6727 21.1822 18.5585C21.4215 18.4388 21.6934 18.379 21.998 18.379C22.5799 18.379 23.0367 18.5802 23.3684 18.9826C23.7002 19.3796 23.8633 19.9588 23.8579 20.7202H20.5786ZM26.751 22.7188H26.2616V18.4932H26.751V19.2845H26.7673C26.9033 18.9473 27.0773 18.7134 27.2894 18.5829C27.5069 18.447 27.7924 18.379 28.1459 18.379V18.9092C27.8686 18.9038 27.6402 18.9473 27.4607 19.0397C27.2812 19.1322 27.1371 19.2573 27.0284 19.415C26.925 19.5727 26.8516 19.7603 26.8081 19.9778C26.77 20.1899 26.751 20.4129 26.751 20.6468V22.7188ZM33.2968 20.3123C33.2968 20.1056 33.2669 19.9126 33.2071 19.7331C33.1527 19.5482 33.0684 19.3905 32.9542 19.26C32.8454 19.124 32.7067 19.018 32.5382 18.9419C32.3696 18.8603 32.1765 18.8195 31.959 18.8195C31.7414 18.8195 31.5484 18.8603 31.3798 18.9419C31.2166 19.0234 31.0752 19.1322 30.9556 19.2681C30.8414 19.4041 30.749 19.5618 30.6783 19.7413C30.6076 19.9207 30.5613 20.1111 30.5396 20.3123H33.2968ZM30.5396 20.7202C30.5396 20.9486 30.5695 21.1661 30.6293 21.3728C30.6891 21.574 30.7761 21.7507 30.8903 21.903C31.01 22.0498 31.1595 22.1695 31.339 22.2619C31.5185 22.3489 31.7251 22.3925 31.959 22.3925C32.2798 22.3925 32.5545 22.3082 32.7829 22.1396C33.0113 21.971 33.1636 21.7317 33.2397 21.4217H33.7862C33.7264 21.6229 33.6476 21.8106 33.5497 21.9846C33.4518 22.1532 33.3294 22.3027 33.1826 22.4332C33.0358 22.5583 32.8617 22.6562 32.6605 22.7269C32.4593 22.7976 32.2254 22.833 31.959 22.833C31.6218 22.833 31.3308 22.7759 31.0861 22.6616C30.8414 22.5474 30.6402 22.3925 30.4825 22.1967C30.3248 21.9955 30.2078 21.7616 30.1317 21.4951C30.0556 21.2232 30.0175 20.9323 30.0175 20.6223C30.0175 20.3123 30.061 20.0214 30.148 19.7494C30.2405 19.4775 30.3683 19.241 30.5314 19.0397C30.7 18.8331 30.9039 18.6727 31.1432 18.5585C31.3825 18.4388 31.6544 18.379 31.959 18.379C32.5409 18.379 32.9977 18.5802 33.3294 18.9826C33.6612 19.3796 33.8243 19.9588 33.8189 20.7202H30.5396ZM39.4611 20.5897C39.4611 20.3504 39.4285 20.1247 39.3632 19.9126C39.2979 19.6951 39.2028 19.5074 39.0777 19.3497C38.958 19.1866 38.8085 19.0588 38.629 18.9663C38.455 18.8684 38.2565 18.8195 38.0335 18.8195C37.7779 18.8195 37.5577 18.8712 37.3728 18.9745C37.1879 19.0724 37.0356 19.2083 36.916 19.3824C36.7963 19.5564 36.7093 19.7603 36.6549 19.9942C36.6005 20.2226 36.5788 20.47 36.5897 20.7365C36.5897 21.003 36.625 21.2395 36.6957 21.4462C36.7718 21.6474 36.8752 21.8187 37.0057 21.9601C37.1362 22.1015 37.2885 22.2103 37.4625 22.2864C37.6365 22.3571 37.8269 22.3925 38.0335 22.3925C38.2619 22.3925 38.4659 22.3462 38.6453 22.2538C38.8248 22.1613 38.9744 22.0362 39.094 21.8785C39.2136 21.7154 39.3034 21.525 39.3632 21.3075C39.4285 21.0845 39.4611 20.8453 39.4611 20.5897ZM39.4611 16.8454H39.9505V22.7188H39.4611V21.9764H39.4448C39.3741 22.1178 39.2816 22.2429 39.1674 22.3517C39.0586 22.455 38.9363 22.542 38.8003 22.6127C38.6698 22.6834 38.5339 22.7378 38.3925 22.7759C38.2511 22.8139 38.1124 22.833 37.9764 22.833C37.6338 22.833 37.3429 22.7759 37.1036 22.6616C36.8643 22.5474 36.6658 22.3925 36.5081 22.1967C36.3558 21.9955 36.2443 21.7589 36.1736 21.487C36.1029 21.2151 36.0676 20.9241 36.0676 20.6141C36.0676 20.3205 36.1057 20.0377 36.1818 19.7658C36.2579 19.4938 36.3721 19.2573 36.5244 19.0561C36.6821 18.8494 36.8779 18.6863 37.1117 18.5666C37.351 18.4415 37.6311 18.379 37.952 18.379C38.2511 18.379 38.5366 18.447 38.8085 18.5829C39.0858 18.7134 39.3034 18.9092 39.4611 19.1703V16.8454ZM46.857 20.5897C46.857 20.8453 46.8869 21.0845 46.9468 21.3075C47.012 21.525 47.1045 21.7154 47.2241 21.8785C47.3438 22.0362 47.4933 22.1613 47.6728 22.2538C47.8522 22.3462 48.0562 22.3925 48.2846 22.3925C48.4912 22.3925 48.6816 22.3571 48.8556 22.2864C49.0296 22.2103 49.1819 22.1015 49.3124 21.9601C49.4429 21.8187 49.5435 21.6474 49.6142 21.4462C49.6904 21.2395 49.7284 21.003 49.7284 20.7365C49.7393 20.47 49.7176 20.2226 49.6632 19.9942C49.6088 19.7603 49.5218 19.5564 49.4021 19.3824C49.2825 19.2083 49.1275 19.0724 48.9372 18.9745C48.7523 18.8712 48.5347 18.8195 48.2846 18.8195C48.0616 18.8195 47.8604 18.8684 47.6809 18.9663C47.5069 19.0588 47.3573 19.1866 47.2323 19.3497C47.1126 19.5074 47.0202 19.6951 46.9549 19.9126C46.8897 20.1247 46.857 20.3504 46.857 20.5897ZM46.857 22.7188H46.3676V16.8454H46.857V19.1703C47.0147 18.9092 47.2295 18.7134 47.5015 18.5829C47.7788 18.447 48.067 18.379 48.3662 18.379C48.687 18.379 48.9644 18.4415 49.1982 18.5666C49.4375 18.6863 49.6333 18.8494 49.7855 19.0561C49.9433 19.2573 50.0602 19.4938 50.1363 19.7658C50.2125 20.0377 50.2505 20.3205 50.2505 20.6141C50.2505 20.9241 50.2152 21.2151 50.1445 21.487C50.0738 21.7589 49.9596 21.9955 49.8019 22.1967C49.6496 22.3925 49.4538 22.5474 49.2145 22.6616C48.9752 22.7759 48.6843 22.833 48.3417 22.833C48.2057 22.833 48.067 22.8139 47.9256 22.7759C47.7843 22.7378 47.6456 22.6834 47.5096 22.6127C47.3791 22.542 47.2567 22.455 47.1425 22.3517C47.0338 22.2429 46.944 22.1178 46.8733 21.9764H46.857V22.7188ZM52.6923 23.869C52.7575 23.8798 52.8228 23.8907 52.8881 23.9016C52.9588 23.9125 53.0295 23.9179 53.1001 23.9179C53.2361 23.9179 53.3476 23.8744 53.4346 23.7874C53.5216 23.7004 53.5923 23.5943 53.6467 23.4692C53.7065 23.3496 53.7555 23.2218 53.7935 23.0858C53.8316 22.9553 53.8751 22.8438 53.9241 22.7514L52.2844 18.4932H52.831L54.1851 22.1233L55.5392 18.4932H56.0695L54.4951 22.6616C54.3972 22.9281 54.302 23.1674 54.2096 23.3795C54.1225 23.5916 54.0274 23.7711 53.9241 23.9179C53.8262 24.0702 53.7147 24.1844 53.5896 24.2605C53.47 24.3421 53.3258 24.3829 53.1573 24.3829C53.0702 24.3829 52.9859 24.3774 52.9044 24.3666C52.8282 24.3557 52.7575 24.3421 52.6923 24.3258V23.869ZM62.1983 22.7188V16.8454H62.753V22.7188H62.1983ZM65.6923 22.7188V16.8454H66.247V19.366H69.7221V16.8454H70.2768V22.7188H69.7221V19.8392H66.247V22.7188H65.6923ZM73.2435 20.9649C73.2653 21.2259 73.3224 21.4489 73.4148 21.6338C73.5127 21.8133 73.6351 21.9601 73.7819 22.0743C73.9342 22.1885 74.1082 22.2728 74.304 22.3272C74.4997 22.3761 74.7091 22.4006 74.9321 22.4006C75.1931 22.4006 75.4188 22.368 75.6092 22.3027C75.7995 22.2375 75.9545 22.1504 76.0741 22.0417C76.1938 21.9275 76.2808 21.797 76.3352 21.6501C76.395 21.5033 76.4249 21.3483 76.4249 21.1851C76.4249 20.9567 76.3732 20.7718 76.2699 20.6304C76.1666 20.489 76.0306 20.3748 75.862 20.2878C75.6989 20.1954 75.5086 20.122 75.291 20.0676C75.0789 20.0132 74.8587 19.9615 74.6303 19.9126C74.4073 19.8582 74.187 19.7957 73.9695 19.725C73.7574 19.6543 73.5671 19.5591 73.3985 19.4395C73.2353 19.3198 73.1021 19.1675 72.9988 18.9826C72.8955 18.7923 72.8438 18.553 72.8438 18.2648C72.8438 18.0636 72.8846 17.8678 72.9661 17.6774C73.0532 17.4871 73.1782 17.3185 73.3414 17.1717C73.51 17.0249 73.7194 16.9079 73.9695 16.8209C74.2197 16.7339 74.5079 16.6904 74.8342 16.6904C75.1659 16.6904 75.4542 16.7366 75.6989 16.8291C75.9491 16.9215 76.1557 17.0493 76.3189 17.2125C76.482 17.3702 76.6044 17.5551 76.6859 17.7672C76.7675 17.9793 76.8083 18.205 76.8083 18.4442H76.2781C76.2781 18.2213 76.2373 18.0282 76.1557 17.8651C76.0796 17.7019 75.9735 17.5687 75.8376 17.4654C75.7016 17.362 75.5466 17.2859 75.3726 17.2369C75.1986 17.188 75.0191 17.1635 74.8342 17.1635C74.5514 17.1635 74.3121 17.2043 74.1163 17.2859C73.926 17.362 73.7737 17.4626 73.6595 17.5877C73.5453 17.7128 73.4665 17.8515 73.423 18.0037C73.3795 18.156 73.3713 18.3083 73.3985 18.4606C73.4311 18.6509 73.5073 18.8032 73.6269 18.9174C73.7465 19.0316 73.8934 19.1268 74.0674 19.2029C74.2414 19.2736 74.4318 19.3334 74.6384 19.3824C74.8505 19.4259 75.0653 19.4748 75.2829 19.5292C75.5004 19.5781 75.7098 19.638 75.911 19.7087C76.1176 19.7793 76.2998 19.8745 76.4575 19.9942C76.6152 20.1138 76.7403 20.2688 76.8328 20.4591C76.9307 20.644 76.9796 20.8779 76.9796 21.1607C76.9796 21.7045 76.792 22.126 76.4167 22.4251C76.0415 22.7242 75.514 22.8737 74.8342 22.8737C74.5297 22.8737 74.2469 22.833 73.9858 22.7514C73.7248 22.6752 73.4991 22.5583 73.3088 22.4006C73.1184 22.2375 72.9689 22.039 72.8601 21.8051C72.7568 21.5658 72.7051 21.2858 72.7051 20.9649H73.2435ZM82.5972 16.8454H86.8717V17.3185H85.0118V22.7188H84.4571V17.3185H82.5972V16.8454ZM89.7867 22.833C89.5148 22.8275 89.2592 22.7786 89.0199 22.6861C88.786 22.5937 88.5794 22.455 88.3999 22.2701C88.2259 22.0852 88.0872 21.8541 87.9839 21.5767C87.8806 21.2994 87.8289 20.9758 87.8289 20.606C87.8289 20.296 87.8697 20.0078 87.9513 19.7413C88.0328 19.4694 88.1552 19.2328 88.3183 19.0316C88.4815 18.8304 88.6854 18.6727 88.9302 18.5585C89.1749 18.4388 89.4604 18.379 89.7867 18.379C90.1184 18.379 90.4067 18.4388 90.6514 18.5585C90.8961 18.6727 91.1 18.8304 91.2632 19.0316C91.4263 19.2274 91.546 19.4612 91.6221 19.7331C91.7037 20.005 91.7445 20.296 91.7445 20.606C91.7445 20.9431 91.6982 21.2477 91.6058 21.5196C91.5133 21.7915 91.3801 22.0254 91.2061 22.2211C91.0375 22.4169 90.8308 22.5692 90.5861 22.678C90.3468 22.7813 90.0804 22.833 89.7867 22.833ZM91.2224 20.606C91.2224 20.3558 91.1952 20.122 91.1408 19.9044C91.0864 19.6869 91.0021 19.4993 90.8879 19.3416C90.7737 19.1784 90.6269 19.0506 90.4474 18.9582C90.268 18.8657 90.0477 18.8195 89.7867 18.8195C89.5311 18.8195 89.3108 18.8712 89.1259 18.9745C88.9465 19.0724 88.7996 19.2056 88.6854 19.3742C88.5712 19.5373 88.4869 19.7277 88.4325 19.9452C88.3782 20.1573 88.351 20.3776 88.351 20.606C88.351 20.867 88.3809 21.109 88.4407 21.332C88.506 21.5495 88.5984 21.7371 88.7181 21.8948C88.8377 22.0526 88.9873 22.1749 89.1667 22.2619C89.3462 22.3489 89.5528 22.3925 89.7867 22.3925C90.0423 22.3925 90.2598 22.3435 90.4393 22.2456C90.6242 22.1423 90.7737 22.0063 90.8879 21.8377C91.0021 21.6692 91.0864 21.4788 91.1408 21.2667C91.1952 21.0546 91.2224 20.8344 91.2224 20.606ZM97.6396 22.0662L98.749 18.4932H99.2466L97.8761 22.7188H97.3541L96.4323 19.1703H96.4159L95.4778 22.7188H94.8905L93.6016 18.4932H94.0911L95.1842 22.0988L96.1631 18.4932H96.7096L97.6396 22.0662ZM104.44 20.3123C104.44 20.1056 104.41 19.9126 104.351 19.7331C104.296 19.5482 104.212 19.3905 104.098 19.26C103.989 19.124 103.85 19.018 103.682 18.9419C103.513 18.8603 103.32 18.8195 103.102 18.8195C102.885 18.8195 102.692 18.8603 102.523 18.9419C102.36 19.0234 102.219 19.1322 102.099 19.2681C101.985 19.4041 101.892 19.5618 101.822 19.7413C101.751 19.9207 101.705 20.1111 101.683 20.3123H104.44ZM101.683 20.7202C101.683 20.9486 101.713 21.1661 101.773 21.3728C101.833 21.574 101.92 21.7507 102.034 21.903C102.153 22.0498 102.303 22.1695 102.482 22.2619C102.662 22.3489 102.869 22.3925 103.102 22.3925C103.423 22.3925 103.698 22.3082 103.926 22.1396C104.155 21.971 104.307 21.7317 104.383 21.4217H104.93C104.87 21.6229 104.791 21.8106 104.693 21.9846C104.595 22.1532 104.473 22.3027 104.326 22.4332C104.179 22.5583 104.005 22.6562 103.804 22.7269C103.603 22.7976 103.369 22.833 103.102 22.833C102.765 22.833 102.474 22.7759 102.23 22.6616C101.985 22.5474 101.784 22.3925 101.626 22.1967C101.468 21.9955 101.351 21.7616 101.275 21.4951C101.199 21.2232 101.161 20.9323 101.161 20.6223C101.161 20.3123 101.204 20.0214 101.291 19.7494C101.384 19.4775 101.512 19.241 101.675 19.0397C101.843 18.8331 102.047 18.6727 102.287 18.5585C102.526 18.4388 102.798 18.379 103.102 18.379C103.684 18.379 104.141 18.5802 104.473 18.9826C104.805 19.3796 104.968 19.9588 104.962 20.7202H101.683ZM107.855 22.7188H107.366V18.4932H107.855V19.2845H107.872C108.008 18.9473 108.182 18.7134 108.394 18.5829C108.611 18.447 108.897 18.379 109.25 18.379V18.9092C108.973 18.9038 108.745 18.9473 108.565 19.0397C108.386 19.1322 108.242 19.2573 108.133 19.415C108.03 19.5727 107.956 19.7603 107.913 19.9778C107.875 20.1899 107.855 20.4129 107.855 20.6468V22.7188ZM111.771 21.3972C111.847 21.7616 111.983 22.0199 112.179 22.1722C112.38 22.319 112.666 22.3925 113.036 22.3925C113.215 22.3925 113.37 22.3707 113.501 22.3272C113.631 22.2837 113.737 22.2266 113.819 22.1559C113.906 22.0797 113.971 21.9955 114.014 21.903C114.058 21.8106 114.08 21.7127 114.08 21.6093C114.08 21.4027 114.012 21.2504 113.876 21.1525C113.745 21.0492 113.579 20.9703 113.378 20.916C113.177 20.8561 112.959 20.8072 112.726 20.7691C112.492 20.7256 112.274 20.6631 112.073 20.5815C111.872 20.4999 111.703 20.383 111.567 20.2307C111.437 20.0785 111.371 19.8636 111.371 19.5863C111.371 19.2328 111.499 18.9446 111.755 18.7216C112.016 18.4932 112.383 18.379 112.856 18.379C113.313 18.379 113.683 18.4823 113.965 18.689C114.254 18.8902 114.428 19.2301 114.488 19.7087H113.99C113.946 19.3824 113.821 19.1539 113.615 19.0234C113.413 18.8875 113.158 18.8195 112.848 18.8195C112.538 18.8195 112.301 18.8875 112.138 19.0234C111.975 19.1539 111.893 19.328 111.893 19.5455C111.893 19.7358 111.959 19.8827 112.089 19.986C112.225 20.0839 112.394 20.1655 112.595 20.2307C112.796 20.2905 113.014 20.3449 113.248 20.3939C113.481 20.4428 113.699 20.5135 113.9 20.606C114.101 20.693 114.267 20.8126 114.398 20.9649C114.534 21.1172 114.602 21.3293 114.602 21.6012C114.602 21.8024 114.558 21.9819 114.471 22.1396C114.384 22.2918 114.265 22.4196 114.112 22.523C113.96 22.6263 113.778 22.7024 113.566 22.7514C113.359 22.8058 113.131 22.833 112.881 22.833C112.63 22.833 112.407 22.7949 112.212 22.7188C112.021 22.6481 111.858 22.5474 111.722 22.4169C111.586 22.2864 111.48 22.1341 111.404 21.9601C111.328 21.7861 111.284 21.5985 111.274 21.3972H111.771Z" fill="white"/>
</svg>
